HIERARCHY
ROOT hip
{
  OFFSET 0 0 0
  CHANNELS 6 Xposition Yposition Zposition Zrotation Yrotation Xrotation
  JOINT abdomen
  {
    OFFSET 0 20.6881 -0.73152
    CHANNELS 3 Zrotation Xrotation Yrotation
    JOINT chest
    {
      OFFSET 0 11.7043 -0.48768
      CHANNELS 3 Zrotation Xrotation Yrotation
      JOINT neck
      {
        OFFSET 0 22.1894 -2.19456
        CHANNELS 3 Zrotation Xrotation Yrotation
        JOINT head
        {
          OFFSET -0.24384 7.07133 1.2192
          CHANNELS 3 Zrotation Xrotation Yrotation
          JOINT leftEye
          {
            OFFSET 4.14528 8.04674 8.04672
            CHANNELS 3 Zrotation Xrotation Yrotation
            End Site
            {
              OFFSET 1 0 0
            }
          }
          JOINT rightEye
          {
            OFFSET -3.6576 8.04674 8.04672
            CHANNELS 3 Zrotation Xrotation Yrotation
            End Site
            {
              OFFSET 1 0 0
            }
          }
        }
      }
      JOINT rCollar
      {
        OFFSET -2.68224 19.2634 -4.8768
        CHANNELS 3 Zrotation Xrotation Yrotation
        JOINT rShldr
        {
          OFFSET -8.77824 -1.95073 1.46304
          CHANNELS 3 Zrotation Xrotation Yrotation
          JOINT rForeArm
          {
            OFFSET -28.1742 -1.7115 0.48768
            CHANNELS 3 Zrotation Xrotation Yrotation
            JOINT rHand
            {
              OFFSET -22.5879 0.773209 7.07136
              CHANNELS 3 Zrotation Xrotation Yrotation
              JOINT rThumb1
              {
                OFFSET -1.2192 -0.487915 3.41376
                CHANNELS 3 Zrotation Xrotation Yrotation
                JOINT rThumb2
                {
                  OFFSET -3.37035 -0.52449 3.41376
                  CHANNELS 3 Zrotation Xrotation Yrotation
                  End Site
                  {
                    OFFSET -1.78271 -1.18214 1.43049
                  }
                }
              }
              JOINT rIndex1
              {
                OFFSET -7.75947 0.938293 5.60832
                CHANNELS 3 Zrotation Xrotation Yrotation
                JOINT rIndex2
                {
                  OFFSET -2.54057 -0.884171 1.56538
                  CHANNELS 3 Zrotation Xrotation Yrotation
                  End Site
                  {
                    OFFSET -1.62519 -0.234802 1.16502
                  }
                }
              }
              JOINT rMid1
              {
                OFFSET -8.24714 1.18213 3.41376
                CHANNELS 3 Zrotation Xrotation Yrotation
                JOINT rMid2
                {
                  OFFSET -3.10165 -0.590103 1.0647
                  CHANNELS 3 Zrotation Xrotation Yrotation
                  End Site
                  {
                    OFFSET -2.48547 -0.328903 0.83742
                  }
                }
              }
              JOINT rRing1
              {
                OFFSET -8.82822 0.546677 1.51678
                CHANNELS 3 Zrotation Xrotation Yrotation
                JOINT rRing2
                {
                  OFFSET -2.60934 -0.819778 -0.0198488
                  CHANNELS 3 Zrotation Xrotation Yrotation
                  End Site
                  {
                    OFFSET -2.33842 -0.294052 0.168128
                  }
                }
              }
              JOINT rPinky1
              {
                OFFSET -8.27202 -0.0477905 -0.4584
                CHANNELS 3 Zrotation Xrotation Yrotation
                JOINT rPinky2
                {
                  OFFSET -1.82734 -0.647385 -0.700984
                  CHANNELS 3 Zrotation Xrotation Yrotation
                  End Site
                  {
                    OFFSET -1.69225 -0.51767 -0.607171
                  }
                }
              }
            }
          }
        }
      }
      JOINT lCollar
      {
        OFFSET 2.68224 19.2634 -4.8768
        CHANNELS 3 Zrotation Xrotation Yrotation
        JOINT lShldr
        {
          OFFSET 8.77824 -1.95073 1.46304
          CHANNELS 3 Zrotation Xrotation Yrotation
          JOINT lForeArm
          {
            OFFSET 28.1742 -1.7115 0.48768
            CHANNELS 3 Zrotation Xrotation Yrotation
            JOINT lHand
            {
              OFFSET 22.5879 0.773209 7.07136
              CHANNELS 3 Zrotation Xrotation Yrotation
              JOINT lThumb1
              {
                OFFSET 1.2192 -0.487915 3.41376
                CHANNELS 3 Zrotation Xrotation Yrotation
                JOINT lThumb2
                {
                  OFFSET 3.37035 -0.52449 3.41376
                  CHANNELS 3 Zrotation Xrotation Yrotation
                  End Site
                  {
                    OFFSET 1.78271 -1.18214 1.43049
                  }
                }
              }
              JOINT lIndex1
              {
                OFFSET 7.75947 0.938293 5.60832
                CHANNELS 3 Zrotation Xrotation Yrotation
                JOINT lIndex2
                {
                  OFFSET 2.54057 -0.884171 1.56538
                  CHANNELS 3 Zrotation Xrotation Yrotation
                  End Site
                  {
                    OFFSET 1.62519 -0.234802 1.16502
                  }
                }
              }
              JOINT lMid1
              {
                OFFSET 8.24714 1.18213 3.41376
                CHANNELS 3 Zrotation Xrotation Yrotation
                JOINT lMid2
                {
                  OFFSET 3.10165 -0.590103 1.0647
                  CHANNELS 3 Zrotation Xrotation Yrotation
                  End Site
                  {
                    OFFSET 2.48547 -0.328903 0.83742
                  }
                }
              }
              JOINT lRing1
              {
                OFFSET 8.82822 0.546677 1.51678
                CHANNELS 3 Zrotation Xrotation Yrotation
                JOINT lRing2
                {
                  OFFSET 2.60934 -0.819778 -0.0198488
                  CHANNELS 3 Zrotation Xrotation Yrotation
                  End Site
                  {
                    OFFSET 2.33842 -0.294052 0.168128
                  }
                }
              }
              JOINT lPinky1
              {
                OFFSET 8.27202 -0.0477905 -0.4584
                CHANNELS 3 Zrotation Xrotation Yrotation
                JOINT lPinky2
                {
                  OFFSET 1.82734 -0.647385 -0.700984
                  CHANNELS 3 Zrotation Xrotation Yrotation
                  End Site
                  {
                    OFFSET 1.69225 -0.51767 -0.607171
                  }
                }
              }
            }
          }
        }
      }
    }
  }
  JOINT rButtock
  {
    OFFSET -8.77824 4.35084 1.2192
    CHANNELS 3 Zrotation Xrotation Yrotation
    JOINT rThigh
    {
      OFFSET 0 -1.70687 -2.19456
      CHANNELS 3 Zrotation Xrotation Yrotation
      JOINT rShin
      {
        OFFSET 0 -36.8199 0.73152
        CHANNELS 3 Zrotation Xrotation Yrotation
        JOINT rFoot
        {
          OFFSET 0.73152 -45.1104 -5.12064
          CHANNELS 3 Zrotation Xrotation Yrotation
          End Site
          {
            OFFSET -1.1221 -3.69964 12.103
          }
        }
      }
    }
  }
  JOINT lButtock
  {
    OFFSET 8.77824 4.35084 1.2192
    CHANNELS 3 Zrotation Xrotation Yrotation
    JOINT lThigh
    {
      OFFSET 0 -1.70687 -2.19456
      CHANNELS 3 Zrotation Xrotation Yrotation
      JOINT lShin
      {
        OFFSET 0 -36.8199 0.73152
        CHANNELS 3 Zrotation Xrotation Yrotation
        JOINT lFoot
        {
          OFFSET -0.73152 -45.1104 -5.12064
          CHANNELS 3 Zrotation Xrotation Yrotation
          End Site
          {
            OFFSET 1.1221 -3.69964 12.103
          }
        }
      }
    }
  }
}
MOTION
Frames:	4
Frame Time:	0.03333
3.998130602762103 3.371159315109253 -2.054155551828444 -194.92645025253296 120.8053207397461 -159.89168286323547 14.13870558142662 -2.320922501385212 22.654457688331604 5.162618011236191 -32.98351585865021 -0.24963269010186195 1.764875091612339 8.235293626785278 19.023076593875885 -1.804705560207367 -9.490618407726288 21.71045422554016 0.042741671204566956 9.044377282261848 -5.160622447729111 0.402405196800828 1.1377062276005745 -7.696955502033234 6.039361730217934 4.727039337158203 -8.009650111198425 -26.57768189907074 52.8186821937561 114.85630989074707 -31.520226001739502 -26.824198365211487 80.22303700447083 2.0585179701447487 25.24146169424057 7.263804227113724 8.843155950307846 -3.024427369236946 2.023404836654663 3.2253747805953026 -4.631386063992977 1.6288436762988567 0.9095887094736099 -6.850637421011925 1.1094025522470474 8.328301906585693 2.5749776512384415 -2.148715630173683 2.074056677520275 -3.329523615539074 -2.490520253777504 5.450476370751858 10.848921239376068 -8.161650225520134 2.674548625946045 3.9981557428836823 -6.032882854342461 5.684384107589722 -4.743865504860878 -2.2260893136262894 -8.077390640974045 -1.334206871688366 -7.2408512234687805 2.1931774355471134 5.83517923951149 -3.176375851035118 1.666514128446579 15.237561017274857 -13.726329356431961 -67.42031693458557 7.051170766353607 -4.268435910344124 38.54235380887985 -38.39735358953476 -90.28095602989197 -13.294605016708374 -37.72858500480652 -0.13626225292682648 -5.395516902208328 3.3628567680716515 -7.19367116689682 6.538589224219322 0.6461173295974731 -0.3364703804254532 7.71099217236042 19.76937174797058 -4.79850847274065 -10.270784497261047 3.5612034425139427 0.4272422008216381 -7.383365705609322 5.022530257701874 -7.8680455684661865 2.3651268146932125 -1.1854736879467964 -6.968110799789429 0.9254412353038788 -13.647999465465546 2.5450539216399193 -10.577446147799492 -14.09908264875412 -2.7500933781266212 -9.006926268339157 4.1109151393175125 -2.676585093140602 -4.201397784054279 7.74810791015625 -6.499359235167503 2.3325430043041706 -4.145339950919151 0.4069776087999344 -54.79971885681152 -37.57219612598419 -50.457801818847656 -159.48745250701904 78.72165441513062 178.70380640029907 -0.8101645857095718 -18.275354504585266 -32.94367700815201 -12.954669892787933 13.898549973964691 6.9846271723508835 73.76299023628235 -60.41882872581482 54.895285964012146 168.79390239715576 77.1834397315979 -177.2779655456543 -11.65161520242691 -35.91628074645996 -7.0057495683431625
3.909896222874522 4.879709720611572 -2.3395087653771043 -179.7905194759369 118.81091594696045 -150.83017230033875 11.156091839075089 0.7839301507920027 30.924526154994965 7.099279537796974 -30.363040566444397 0.36328962072730064 2.014152891933918 10.87815597653389 21.10345423221588 -0.5072399228811264 -8.570553660392761 15.55951327085495 0.9445392340421677 9.43455956876278 -4.60607573390007 7.940410226583481 4.653223268687725 -6.41028106212616 11.091468706727028 -0.28197795152664185 -7.2508397698402405 -22.763848900794983 54.291531443595886 113.25999855995178 -31.52174413204193 -25.904745161533356 76.66444301605225 1.003100909292698 22.91276514530182 11.177527382969856 7.208435386419296 -0.909575130790472 -4.007028490304947 5.451858378946781 -1.361601697281003 2.1228287927806377 -1.71391312032938 -8.766912147402763 -0.48411525785923004 11.062332540750504 0.8187396079301834 -2.0644131302833557 -2.669951654970646 3.670692555606365 0.38047805428504944 6.795542165637016 7.529522627592087 -9.499136433005333 0.1173989474773407 -0.8892924338579178 -6.847463697195053 7.180057615041733 -2.721802443265915 -1.0751266032457352 -11.917085498571396 -4.589929170906544 -9.281730651855469 -0.0702877901494503 6.587105691432953 -3.316848501563072 -0.5716980993747711 16.25336855649948 -11.84344008564949 -67.43188261985779 3.6500033363699913 -2.724710628390312 41.52596801519394 -39.26894545555115 -80.44429242610931 -11.990517675876617 -36.17356896400452 -5.620144531130791 -12.334371507167816 6.86417318880558 -12.576749324798584 11.249755918979645 -0.34988611936569214 6.493612602353096 7.846825942397118 15.387307405471802 -0.07512498646974564 -10.005750730633736 1.7410284094512463 2.617178689688444 -3.887527361512184 5.201536864042282 -6.756672263145447 5.237035229802132 5.880201458930969 -6.995811313390732 -0.9021301567554474 -15.486938059329987 -4.091852344572544 -6.262184903025627 -16.97111025452614 -0.5094899609684944 -8.761074990034103 0.24086588993668556 -4.028502926230431 -5.8986349403858185 8.08681458234787 -5.0841741263866425 1.0420637670904398 -7.326620891690254 0.16964368522167206 -51.55861794948578 -39.92463290691376 -49.713735580444336 -151.47669196128845 82.276611328125 170.43356895446777 3.316849172115326 -18.83781373500824 -28.526953160762787 -12.273874282836914 13.414848446846008 3.8389740139245987 62.89965748786926 -56.27996563911438 55.33757150173187 168.95524263381958 65.78819811344147 -176.1455798149109 -14.776187539100647 -39.147765934467316 -6.522155329585075
3.7673150431364775 6.321030616760254 -2.5763338590040803 -167.20392107963562 117.6634669303894 -148.82543563842773 8.356002420186996 12.510022670030594 39.85174924135208 5.827071592211723 -23.578307032585144 3.5326603800058365 0.8347205445170403 14.653137177228928 21.728760302066803 -0.8028589189052582 -16.890672147274017 10.449740812182426 -0.05400426685810089 5.4251063615083694 -2.4936512298882008 12.073978632688522 7.530274987220764 -8.458104729652405 13.614458441734314 -2.630898356437683 -5.795871466398239 -17.1369431912899 61.623419523239136 119.56926226615906 -32.52172261476517 -34.06894952058792 85.10371327400208 -1.9272929057478905 15.860951989889145 15.257369130849838 8.20583090186119 1.0691253282129765 -11.892925500869751 6.586767733097076 2.444927729666233 3.320896625518799 -4.292075224220753 -8.618764355778694 -1.098901703953743 13.003870993852615 2.730809971690178 0.28587394393980503 -8.77527192234993 11.039105281233788 -0.5599057674407959 8.892488479614258 1.5768411755561829 -7.715319916605949 -0.6359671801328659 -7.785811051726341 -7.0640091598033905 8.352984935045242 -2.971581816673279 3.7825389951467514 -7.373777478933334 -6.5117597579956055 -8.481930792331696 -1.807596143335104 7.091082036495209 -3.560885265469551 -5.869455188512802 13.04366022348404 -5.3984978422522545 -68.84227395057678 8.41753363609314 -7.489480599761009 42.368908524513245 -45.609097480773926 -78.07674407958984 -7.152334973216057 -36.190815567970276 -3.8476885110139847 -15.435208976268768 11.773476004600525 -16.421001255512238 8.811048567295074 -0.9426643699407578 14.346210658550262 6.733373925089836 7.670546472072601 4.90166824311018 -10.733178555965424 1.5216800384223461 4.941008538007736 0.6331421434879303 5.609608143568039 -3.4574710205197334 9.353182688355446 10.598054230213165 -3.075408786535263 -2.1791741251945496 -12.660380601882935 -12.501170039176941 -2.4732602387666702 -17.2731551527977 -0.42948804795742035 -4.595676474273205 -1.5771139226853848 -7.1077727526426315 -5.942475646734238 9.761342480778694 -2.879781872034073 -2.9699617624282837 -9.783407673239708 0.41665904223918915 -51.044604778289795 -45.857593417167664 -57.51719355583191 -156.18120074272156 88.48633289337158 172.4750304222107 1.6145805269479752 -23.478367924690247 -20.481133460998535 -10.38238987326622 9.339565113186836 -1.867089718580246 62.42432177066803 -53.43754827976227 61.743512749671936 173.37095260620117 59.083115458488464 -182.93695449829102 -14.011967182159424 -43.24149549007416 -4.1805412620306015
3.6208519618958235 7.211465358734131 -2.725053303875029 -146.08563423156738 107.93084621429443 -145.07436633110046 7.720624655485153 25.167920887470245 44.43416655063629 1.3052064925432205 -19.20147567987442 6.05094887316227 -4.432151578366756 16.129103153944016 20.865019261837006 -4.453855007886887 -26.203698813915253 8.80147509276867 1.8003690987825394 1.0830511897802353 -0.9231400676071644 13.389726877212524 5.4253145679831505 -7.888365983963013 10.223591700196266 -2.9517710208892822 -3.548913896083832 -8.236021846532822 63.759316205978394 116.51805639266968 -33.095192313194275 -42.588656544685364 90.45274615287781 -2.3116400465369225 7.146340906620026 13.697050362825394 8.132327646017075 3.426043912768364 -20.333430916070938 5.570175983011723 6.225868463516235 4.313056468963623 -2.5100933387875557 -8.79389651119709 1.4430800825357437 12.404025793075562 5.210958793759346 2.524496465921402 -12.696758061647415 14.515075832605362 1.2546857446432114 11.946007758378983 -2.5230997055768967 -5.594725236296654 1.9702944159507751 -12.788729667663574 -8.355184346437454 8.764525651931763 -2.239738404750824 7.214701697230339 -2.177940309047699 -4.631624110043049 -6.682468950748444 -1.4120950363576412 4.634028039872646 -5.172564312815666 -12.668053060770035 7.300074398517609 1.139351762831211 -68.7628698348999 11.97343334555626 -10.458380207419395 38.08465093374252 -48.68093490600586 -75.49111604690552 -2.0248981565237045 -28.751102685928345 -0.6166579574346542 -14.63430404663086 14.047388434410095 -15.195129811763763 1.584555208683014 -0.9342777729034424 15.016736090183258 2.3646683245897293 0.2814733609557152 9.684029817581177 -9.852847382426262 2.064905147999525 4.602256268262863 3.9269880205392838 0.23268280550837517 -2.0812081173062325 11.298979818820953 10.249541401863098 -1.8035897612571716 -3.6782339215278625 -7.8323232382535934 -17.455776035785675 -1.299949362874031 -15.603504180908203 -1.4153269305825233 1.874765194952488 -4.85530324280262 -8.734279051423073 -2.410454638302326 9.04301069676876 -0.630210991948843 -7.639448940753937 -11.793758869171143 -2.4816367775201797 -49.81899619102478 -47.67965018749237 -61.04948580265045 -155.29202699661255 91.60861730575562 161.43801927566528 -2.8667711466550827 -28.596113920211792 -14.242418557405472 -7.2526294738054276 5.395988300442696 -4.937966912984848 59.158769845962524 -49.984198808670044 59.125049114227295 164.9042272567749 55.855334401130676 -177.88324356079102 -10.30178613960743 -39.17903780937195 -2.9459284991025925
